<?xml version="1.0" encoding="UTF-8" standalone="no"?>
<svg width="332px" height="260px" viewBox="0 0 332 260" version="1.1" xmlns="http://www.w3.org/2000/svg" xmlns:xlink="http://www.w3.org/1999/xlink" xmlns:sketch="http://www.bohemiancoding.com/sketch/ns">
    <!-- Generator: Sketch 3.4.1 (15681) - http://www.bohemiancoding.com/sketch -->
    <title>Group</title>
    <desc>Created with Sketch.</desc>
    <defs></defs>
    <g id="Page-1" stroke="none" stroke-width="1" fill="none" fill-rule="evenodd" sketch:type="MSPage">
        <g id="Home2" sketch:type="MSArtboardGroup" transform="translate(-13.000000, -380.000000)">
            <g id="Rectangle-297-+-Group" sketch:type="MSLayerGroup" transform="translate(0.000000, 75.000000)">
                <g id="Group" transform="translate(13.000000, 305.000000)" sketch:type="MSShapeGroup">
                    <g id="arm1" transform="translate(29.000000, 146.000000)">
                        <g id="Fill-3-+-Fill-4">
                            <path d="M36.4572491,37.1379527 L13.4091681,34.5162911 L13.4091681,4.88475127 C13.4091681,2.48754001 11.4591397,0.544353808 9.05348752,0.544353808 C6.64732114,0.544353808 4.69729273,2.48754001 4.69729273,4.88475127 L4.69729273,41.4783501 C4.69729273,41.879081 4.72403362,42.2516276 4.72403362,42.6267363 C4.58055843,42.6267363 4.75900249,42.6323732 2.83725772,42.6323732 C0.506685787,42.6323732 0.506685787,45.2699205 0.506685787,45.2699205 L0.506685787,63.7312143 L9.65978591,69.4459856 L9.65978591,82.9627109 L40.7579051,82.9627109 L40.7579051,42.0830336 C40.7579051,37.7974676 36.4572491,37.1379527 36.4572491,37.1379527" id="Fill-3" fill="#F0CAA1"></path>
                            <path d="M4.72403362,42.6267363 L4.72403362,58.6764704 L2.83725772,42.6323732" id="Fill-4" fill="#DCB58A"></path>
                        </g>
                        <g id="Fill-5-+-Fill-6" transform="translate(3.000000, 81.000000)">
                            <path d="M3.18501219,0.309055342 L39.6966201,0.309055342 L39.6966201,5.09169164 L3.18501219,5.09169164 L3.18501219,0.309055342 Z" id="Fill-5" fill="#F3F2EE"></path>
                            <path d="M0.780902793,5.09169164 L41.9253709,5.09169164 L41.9253709,35.0696434 L0.780902793,35.0696434 L0.780902793,5.09169164 Z" id="Fill-6" fill="#262929"></path>
                        </g>
                        <g id="Fill-49-+-Fill-51" transform="translate(33.000000, 90.000000)">
                            <path d="M0.0441851421,4.29078955 C0.0441851421,2.30968252 1.65583837,0.703684217 3.64392113,0.703684217 C5.63200389,0.703684217 7.24365712,2.30968252 7.24365712,4.29078955 C7.24365712,6.27189659 5.63200389,7.87789489 3.64392113,7.87789489 C1.65583837,7.87789489 0.0441851421,6.27189659 0.0441851421,4.29078955" id="Fill-49" fill="#F3F2EE"></path>
                            <path d="M2.3300175,3.37095326 L2.72084597,2.98149611 L3.64443538,3.90235729 L4.5520831,2.99840675 L4.94085458,3.38530168 L4.03320687,4.28976467 L4.95782477,5.21062585 L4.56699629,5.600083 L3.64237839,4.67870937 L2.73473067,5.58265992 L2.34698768,5.19576499 L3.25412115,4.29181444 L2.3300175,3.37095326" id="Fill-51" fill="#262929"></path>
                        </g>
                        <g id="Fill-50-+-Fill-52" transform="translate(33.000000, 102.000000)">
                            <path d="M0.0441851421,4.33321461 C0.0441851421,2.35210758 1.65583837,0.746109275 3.64392113,0.746109275 C5.63200389,0.746109275 7.24365712,2.35210758 7.24365712,4.33321461 C7.24365712,6.31432164 5.63200389,7.92031995 3.64392113,7.92031995 C1.65583837,7.92031995 0.0441851421,6.31432164 0.0441851421,4.33321461" id="Fill-50" fill="#F3F2EE"></path>
                            <path d="M2.3300175,3.41337831 L2.72084597,3.02392116 L3.64443538,3.94478235 L4.5520831,3.0408318 L4.94085458,3.42772674 L4.03320687,4.33218972 L4.95782477,5.25305091 L4.56699629,5.64250806 L3.64237839,4.72113443 L2.73473067,5.62508498 L2.34698768,5.23819004 L3.25412115,4.3342395 L2.3300175,3.41337831" id="Fill-52" fill="#262929"></path>
                        </g>
                    </g>
                    <g id="arm2" transform="translate(151.000000, 104.000000)">
                        <g id="Fill-7-+-Fill-8">
                            <path d="M36.135525,36.775776 L13.0879582,34.1541144 L13.0879582,4.52257457 C13.0879582,2.12536332 11.1379298,0.182177118 8.73176342,0.182177118 C6.32559703,0.182177118 4.37556862,2.12536332 4.37556862,4.52257457 L4.37556862,41.1161734 C4.37556862,41.5169044 4.40230952,41.8894509 4.40230952,42.2645596 C4.25934857,42.2645596 4.43727838,42.2701965 2.51553361,42.2701965 C0.184961682,42.2701965 0.184961682,44.9077438 0.184961682,44.9077438 L0.184961682,63.3690376 L9.33857605,69.0838089 L9.33857605,82.6005342 L40.436181,82.6005342 L40.436181,41.7208569 C40.436181,37.4352909 36.135525,36.775776 36.135525,36.775776" id="Fill-7" fill="#F0CAA1"></path>
                            <path d="M4.40230952,42.2645596 L4.40230952,58.3142938 L2.51553361,42.2701965" id="Fill-8" fill="#DCB58A"></path>
                        </g>
                        <g id="Fill-9-+-Fill-10" transform="translate(3.000000, 80.000000)">
                            <path d="M2.86328808,0.946878651 L39.374896,0.946878651 L39.374896,5.72951495 L2.86328808,5.72951495 L2.86328808,0.946878651 Z" id="Fill-9" fill="#F3F2EE"></path>
                            <path d="M0.459178688,5.72951495 L41.6036468,5.72951495 L41.6036468,78.0696434 L0.459178688,78.0696434 L0.459178688,5.72951495 Z" id="Fill-10" fill="#262929"></path>
                        </g>
                        <g id="Fill-11-+-Fill-13" transform="translate(31.000000, 91.000000)">
                            <path d="M0.661567417,3.78234393 C0.661567417,1.8012369 2.27322064,0.195238597 4.26130341,0.195238597 C6.24938617,0.195238597 7.86103939,1.8012369 7.86103939,3.78234393 C7.86103939,5.76345097 6.24938617,7.36944927 4.26130341,7.36944927 C2.27322064,7.36944927 0.661567417,5.76345097 0.661567417,3.78234393" id="Fill-11" fill="#F3F2EE"></path>
                            <path d="M2.94739977,2.86250764 L3.33822825,2.47305049 L4.26181765,3.39391167 L5.16895112,2.48996112 L5.55772261,2.87685606 L4.65058914,3.78131905 L5.57469279,4.70218023 L5.18437856,5.09163738 L4.25976066,4.17026375 L3.35211294,5.07472674 L2.96385571,4.68731937 L3.87150342,3.78336882 L2.94739977,2.86250764" id="Fill-13" fill="#262929"></path>
                        </g>
                        <g id="Fill-12-+-Fill-14" transform="translate(31.000000, 103.000000)">
                            <path d="M0.661567417,3.82476899 C0.661567417,1.84366196 2.27322064,0.237663654 4.26130341,0.237663654 C6.24938617,0.237663654 7.86103939,1.84366196 7.86103939,3.82476899 C7.86103939,5.80587602 6.24938617,7.41187433 4.26130341,7.41187433 C2.27322064,7.41187433 0.661567417,5.80587602 0.661567417,3.82476899" id="Fill-12" fill="#F3F2EE"></path>
                            <path d="M2.94739977,2.90493269 L3.33822825,2.51547554 L4.26181765,3.43633673 L5.16895112,2.53238618 L5.55772261,2.91928112 L4.65058914,3.8237441 L5.57469279,4.74460529 L5.18437856,5.13406244 L4.25976066,4.21268881 L3.35211294,5.1171518 L2.96385571,4.72974442 L3.87150342,3.82579388 L2.94739977,2.90493269" id="Fill-14" fill="#262929"></path>
                        </g>
                    </g>
                    <g id="arm3" transform="translate(273.000000, 59.000000)">
                        <g id="hand">
                            <path d="M36.8690378,36.6807375 L13.821471,34.0590759 L13.821471,4.42753606 C13.821471,2.03032481 11.8714426,0.0871386047 9.4652762,0.0871386047 C7.05910982,0.0871386047 5.10908141,2.03032481 5.10908141,4.42753606 L5.10908141,41.0211349 C5.10908141,41.4218658 5.13582231,41.7944123 5.13582231,42.1695211 C4.99286136,42.1695211 5.17079117,42.175158 3.2490464,42.175158 C0.918474471,42.175158 0.918474471,44.8127053 0.918474471,44.8127053 L0.918474471,63.2739991 L10.0720888,68.9887703 L10.0720888,82.5054957 L41.1696938,82.5054957 L41.1696938,41.6258184 C41.1696938,37.3402524 36.8690378,36.6807375 36.8690378,36.6807375" id="Fill-15" fill="#F0CAA1"></path>
                            <path d="M5.13582231,42.1695211 L5.13582231,58.2192552 L3.2490464,42.175158" id="Fill-16" fill="#DCB58A"></path>
                        </g>
                        <g id="sleeve" transform="translate(4.000000, 80.000000)">
                            <path d="M2.59680087,0.851840138 L39.1084088,0.851840138 L39.1084088,5.63447644 L2.59680087,5.63447644 L2.59680087,0.851840138 Z" id="Fill-17" fill="#F3F2EE"></path>
                            <path d="M0.192691477,5.63447644 L41.3371596,5.63447644 L41.3371596,123.069643 L0.192691477,123.069643 L0.192691477,5.63447644 Z" id="Fill-18" fill="#262929"></path>
                        </g>
                        <g id="buckle" transform="translate(32.000000, 91.000000)">
                            <path d="M0.395080205,3.68730542 C0.395080205,1.70619839 2.00673343,0.100200084 3.99481619,0.100200084 C5.98289896,0.100200084 7.59455218,1.70619839 7.59455218,3.68730542 C7.59455218,5.66841245 5.98289896,7.27441076 3.99481619,7.27441076 C2.00673343,7.27441076 0.395080205,5.66841245 0.395080205,3.68730542" id="Fill-19" fill="#F3F2EE"></path>
                            <path d="M2.68091256,2.76746912 L3.07174104,2.37801197 L3.99533044,3.29887316 L4.90246391,2.39492261 L5.2912354,2.78181754 L4.38410193,3.68628053 L5.30871983,4.60714172 L4.91789135,4.99659887 L3.99327345,4.07522524 L3.08562573,4.97968823 L2.69736849,4.59228085 L3.60501621,3.68833031 L2.68091256,2.76746912" id="Fill-21" fill="#262929"></path>
                        </g>
                        <g id="buckle" transform="translate(32.000000, 103.000000)">
                            <path d="M0.395080205,3.72973048 C0.395080205,1.74862344 2.00673343,0.142625141 3.99481619,0.142625141 C5.98289896,0.142625141 7.59455218,1.74862344 7.59455218,3.72973048 C7.59455218,5.71083751 5.98289896,7.31683581 3.99481619,7.31683581 C2.00673343,7.31683581 0.395080205,5.71083751 0.395080205,3.72973048" id="Fill-20" fill="#F3F2EE"></path>
                            <path d="M2.68091256,2.80989418 L3.07174104,2.42043703 L3.99533044,3.34129821 L4.90246391,2.43734767 L5.2912354,2.8242426 L4.38410193,3.72870559 L5.30871983,4.64956677 L4.91789135,5.03902393 L3.99327345,4.1176503 L3.08562573,5.02211329 L2.69736849,4.63470591 L3.60501621,3.73075536 L2.68091256,2.80989418" id="Fill-22" fill="#262929"></path>
                        </g>
                    </g>
                    <path d="M0.991634275,148.993322 C0.269630085,147.9423 0.539610284,146.506945 1.59381868,145.787987 L38.7317806,120.453799 C39.2887112,120.074079 39.9855173,119.954679 40.6355267,120.12891 L98.2179321,135.446362 L158.8452,78.9458662 C159.422186,78.4072879 160.236241,78.2012856 161.002984,78.3965266 L218.842,93.231257 L282.21998,33.9922621 C282.480189,33.7488514 282.793881,33.5689837 283.135856,33.466495 C293.466069,30.3662111 327.309244,20.232126 329.088542,19.9789789 C330.356164,19.8016734 331.526078,20.6753898 331.706579,21.9365135 C331.885537,23.1832889 331.026743,24.3393617 329.783806,24.5387022 C327.902687,24.9184229 302.190801,32.5661315 284.990234,37.7264388 L221.081035,97.4625039 C220.503021,98.003132 219.688452,98.2096467 218.92068,98.0138933 L161.078579,83.1786505 L100.442055,139.688883 C99.857869,140.232073 99.0355864,140.437563 98.2642144,140.232073 L40.4689104,124.85774 L4.20825551,149.593393 C3.80868481,149.866013 3.35357533,149.996686 2.90309409,149.996686 C2.16566246,149.996686 1.43954428,149.645663 0.991634275,148.993322 Z" id="Fill-23" fill="#D9D9D9"></path>
                    <g id="dot1" transform="translate(24.000000, 87.000000)">
                        <path d="M1.05072688,35.6291225 C1.05072688,28.3595973 6.96457886,22.4664957 14.2591867,22.4664957 C21.5543088,22.4664957 27.4681608,28.3595973 27.4681608,35.6291225 C27.4681608,42.8981353 21.5543088,48.7912369 14.2591867,48.7912369 C6.96457886,48.7912369 1.05072688,42.8981353 1.05072688,35.6291225" id="Fill-24" fill="#DA7B33"></path>
                        <path d="M1,35.1626268 C1,27.8931016 6.91385198,22 14.2089741,22 C21.5035819,22 27.4174339,27.8931016 27.4174339,35.1626268 C27.4174339,42.4316396 21.5035819,48.3247412 14.2089741,48.3247412 C6.91385198,48.3247412 1,42.4316396 1,35.1626268" id="Fill-25" fill="#F8B684"></path>
                        <path d="M14.0540018,22.3814301 C6.91212557,22.3814301 1.10215168,28.1710181 1.10215168,35.2878351 C1.10215168,42.4041396 6.91212557,48.1937276 14.0540018,48.1937276 C21.1953637,48.1937276 27.0053376,42.4041396 27.0053376,35.2878351 C27.0053376,28.1710181 21.1953637,22.3814301 14.0540018,22.3814301 L14.0540018,22.3814301 Z M14.0540018,48.7061713 C6.62877492,48.7061713 0.587903682,42.6864961 0.587903682,35.2878351 C0.587903682,27.8886617 6.62877492,21.8689865 14.0540018,21.8689865 C21.4787144,21.8689865 27.5195856,27.8886617 27.5195856,35.2878351 C27.5195856,42.6864961 21.4787144,48.7061713 14.0540018,48.7061713 L14.0540018,48.7061713 Z" id="Fill-26" fill="#DA7B33"></path>
                        <path d="M19.1615129,44.3744853 C14.124968,47.2718416 7.68504031,45.5531057 4.77799637,40.5342329 C1.86992394,35.51536 3.59574022,29.0980286 8.63177087,26.1996475 C13.6672873,23.3028037 20.1087577,25.0220521 23.0168301,30.0409249 C25.9249026,35.0597977 24.1980578,41.4771291 19.1615129,44.3744853 L19.1615129,44.3744853 Z M25.2959773,28.7290692 C21.6623009,22.4562468 13.6102057,20.3060334 7.315296,23.9279849 C1.019872,27.5499364 -1.13739835,35.5727537 2.498335,41.8450636 C6.13201135,48.1199358 14.1835923,50.2691243 20.478502,46.6471728 C26.773926,43.0241964 28.9311964,35.002404 25.2959773,28.7290692 L25.2959773,28.7290692 Z M14.8274308,30.3130324 C14.3142113,29.8011012 13.4795868,29.8011012 12.965853,30.3130324 C12.9643103,30.3145698 12.963796,30.3155946 12.963796,30.3155946 L9.2426975,34.0220993 C8.7284495,34.5340305 8.7284495,35.3652141 9.2426975,35.8781701 L9.2426975,35.8766328 C9.75745974,36.388564 10.5900273,36.388564 11.1047895,35.8766328 L12.580167,34.4069445 L12.580167,39.8777926 C12.580167,40.6034127 13.1700095,41.1896482 13.8971561,41.1896482 C14.6237886,41.1896482 15.213631,40.6034127 15.213631,39.8777926 L15.213631,34.4069445 L16.6884943,35.8766328 C17.2027423,36.388564 18.0373668,36.388564 18.5495578,35.8766328 L18.5495578,35.8781701 C19.0638058,35.3652141 19.0638058,34.5340305 18.5495578,34.0220993 L14.8274308,30.3130324 L14.8274308,30.3130324 Z" id="Fill-39" fill="#FF8020"></path>
                        <path d="M19.4931856,12.8177523 C19.8495595,13.1739006 20.4286027,13.1739006 20.7860051,12.8177523 C21.1428932,12.4626288 21.1428932,11.8861298 20.7860051,11.5299814 L15.1729882,5.93665933 C14.9945442,5.7588414 14.7605613,5.67018865 14.5265785,5.67018865 C14.2925956,5.67018865 14.059127,5.7588414 13.880683,5.93665933 L8.26766608,11.5299814 C7.91077797,11.8861298 7.91077797,12.4626288 8.26766608,12.8177523 C8.62455419,13.1739006 9.20308319,13.1739006 9.5609998,12.8177523 L14.5265785,7.86908422 L19.4931856,12.8177523 L19.4931856,12.8177523 Z M14.5265785,2.19889557 L9.5609998,7.14807605 C9.20308319,7.50319948 8.62455419,7.50319948 8.26766608,7.14807605 C7.91077797,6.79192773 7.91077797,6.21491622 8.26766608,5.85979279 L13.880683,0.265958239 C14.059127,0.0886527462 14.2925956,0 14.5265785,0 C14.7605613,0 14.9945442,0.0886527462 15.1729882,0.265958239 L20.7860051,5.85979279 C21.1428932,6.21491622 21.1428932,6.79192773 20.7860051,7.14807605 C20.4286027,7.50319948 19.8495595,7.50319948 19.4931856,7.14807605 L14.5265785,2.19889557 L14.5265785,2.19889557 Z" id="Fill-44" fill="#FF8020"></path>
                    </g>
                    <g id="dot2" transform="translate(146.000000, 45.000000)">
                        <path d="M1.08126266,38.3913146 C1.08126266,31.1223018 6.99511464,25.2292002 14.2902367,25.2292002 C21.5848446,25.2292002 27.4986966,31.1223018 27.4986966,38.3913146 C27.4986966,45.6608398 21.5848446,51.5539414 14.2902367,51.5539414 C6.99511464,51.5539414 1.08126266,45.6608398 1.08126266,38.3913146" id="Fill-27" fill="#DA7B33"></path>
                        <path d="M1,38.1621144 C1,30.8931016 6.91385198,25 14.2084598,25 C21.5035819,25 27.4174339,30.8931016 27.4174339,38.1621144 C27.4174339,45.4316396 21.5035819,51.3247412 14.2084598,51.3247412 C6.91385198,51.3247412 1,45.4316396 1,38.1621144" id="Fill-28" fill="#F8B684"></path>
                        <path d="M14.0845375,25.1441346 C6.94317559,25.1441346 1.1332017,30.9337226 1.1332017,38.0500271 C1.1332017,45.1668441 6.94317559,50.9564321 14.0845375,50.9564321 C21.2264137,50.9564321 27.0363876,45.1668441 27.0363876,38.0500271 C27.0363876,30.9337226 21.2264137,25.1441346 14.0845375,25.1441346 L14.0845375,25.1441346 Z M14.0845375,51.4688758 C6.65982494,51.4688758 0.618953705,45.4492006 0.618953705,38.0500271 C0.618953705,30.6513662 6.65982494,24.631691 14.0845375,24.631691 C21.5097644,24.631691 27.5506356,30.6513662 27.5506356,38.0500271 C27.5506356,45.4492006 21.5097644,51.4688758 14.0845375,51.4688758 L14.0845375,51.4688758 Z" id="Fill-29" fill="#DA7B33"></path>
                        <path d="M19.3499228,47.1371898 C14.3133779,50.0345461 7.87293597,48.3158102 4.96589204,43.2969374 C2.05833385,38.2780645 3.78363589,31.8607331 8.81966654,28.962352 C13.8551829,26.0655082 20.2971676,27.7847566 23.20524,32.8036294 C26.1127982,37.8225022 24.3864677,44.2393212 19.3499228,47.1371898 L19.3499228,47.1371898 Z M25.4838729,31.4912613 C21.8501966,25.2184389 13.7986157,23.0687379 7.50370591,26.690177 C1.20776766,30.3126409 -0.949502691,38.3354582 2.68623066,44.6077681 C6.32042126,50.8821278 14.3714879,53.0318288 20.6663977,49.4093649 C26.9618217,45.7869009 29.1196063,37.7651085 25.4838729,31.4912613 L25.4838729,31.4912613 Z M15.0153264,33.0752245 C14.5021069,32.5632933 13.6679967,32.5632933 13.1542629,33.0752245 C13.1527202,33.0767618 13.1516917,33.0782991 13.1511774,33.0782991 L9.43110741,36.7848038 C8.91685941,37.296735 8.91685941,38.1279186 9.43110741,38.6408746 L9.43110741,38.6393373 C9.94586965,39.1512685 10.7784372,39.1512685 11.2931994,38.6393373 L12.7685769,37.169649 L12.7685769,42.6399846 C12.7685769,43.3656048 13.3579051,43.9523527 14.0850518,43.9523527 C14.8121985,43.9523527 15.4015267,43.3656048 15.4015267,42.6399846 L15.4015267,37.169649 L16.8763899,38.6393373 C17.3906379,39.1512685 18.2252624,39.1512685 18.7374534,38.6393373 L18.7374534,38.6408746 C19.2517014,38.1279186 19.2517014,37.296735 18.7374534,36.7848038 L15.0153264,33.0752245 L15.0153264,33.0752245 Z" id="Fill-40" fill="#FF8020"></path>
                        <path d="M19.4935713,12.8182647 C19.8499452,13.1739006 20.4289884,13.1739006 20.7863908,12.8182647 C21.1432789,12.4631413 21.1432789,11.8866422 20.7863908,11.5299814 L15.1733739,5.93665933 C14.9949298,5.75935384 14.760947,5.67070109 14.5269642,5.67070109 C14.2929813,5.67070109 14.0589985,5.75935384 13.8810687,5.93665933 L8.26805177,11.5299814 C7.91064941,11.8866422 7.91064941,12.4631413 8.26805177,12.8182647 C8.62493988,13.1739006 9.20346888,13.1739006 9.56087124,12.8182647 L14.5269642,7.86959666 L19.4935713,12.8182647 L19.4935713,12.8182647 Z M14.5269642,2.19889557 L9.56087124,7.14807605 C9.20346888,7.50371192 8.62493988,7.50371192 8.26805177,7.14807605 C7.91064941,6.79244018 7.91064941,6.21542866 8.26805177,5.86030523 L13.8810687,0.266470682 C14.0589985,0.0891651898 14.2929813,0 14.5269642,0 C14.760947,0 14.9949298,0.0891651898 15.1733739,0.266470682 L20.7863908,5.86030523 C21.1432789,6.21542866 21.1432789,6.79244018 20.7863908,7.14807605 C20.4289884,7.50371192 19.8499452,7.50371192 19.4935713,7.14807605 L14.5269642,2.19889557 L14.5269642,2.19889557 Z" id="Fill-45" fill="#FF8020"></path>
                    </g>
                    <g id="dot3" transform="translate(268.000000, 0.000000)">
                        <path d="M0.803763879,38.5524979 C0.803763879,31.2834851 6.71761586,25.3903835 14.0122237,25.3903835 C21.3073458,25.3903835 27.2211978,31.2834851 27.2211978,38.5524979 C27.2211978,45.8220231 21.3073458,51.7151247 14.0122237,51.7151247 C6.71761586,51.7151247 0.803763879,45.8220231 0.803763879,38.5524979" id="Fill-30" fill="#DA7B33"></path>
                        <path d="M1,38.1621144 C1,30.8931016 6.91385198,25 14.2089741,25 C21.5035819,25 27.4174339,30.8931016 27.4174339,38.1621144 C27.4174339,45.4316396 21.5035819,51.3247412 14.2089741,51.3247412 C6.91385198,51.3247412 1,45.4316396 1,38.1621144" id="Fill-31" fill="#F8B684"></path>
                        <path d="M13.8070388,25.3053179 C6.66516256,25.3053179 0.855188678,31.0949059 0.855188678,38.2112104 C0.855188678,45.3280274 6.66516256,51.1176154 13.8070388,51.1176154 C20.9484007,51.1176154 26.7583746,45.3280274 26.7583746,38.2112104 C26.7583746,31.0949059 20.9484007,25.3053179 13.8070388,25.3053179 L13.8070388,25.3053179 Z M13.8070388,51.6300591 C6.38181192,51.6300591 0.34094068,45.6103839 0.34094068,38.2112104 C0.34094068,30.8125495 6.38181192,24.7928743 13.8070388,24.7928743 C21.2317514,24.7928743 27.2726226,30.8125495 27.2726226,38.2112104 C27.2726226,45.6103839 21.2317514,51.6300591 13.8070388,51.6300591 L13.8070388,51.6300591 Z" id="Fill-32" fill="#DA7B33"></path>
                        <path d="M19.2765805,47.2983731 C14.2400356,50.1957294 7.8001079,48.4769935 4.89306396,43.4581207 C1.98499153,38.4392478 3.71080781,32.0219164 8.74683846,29.1235353 C13.7823549,26.2266915 20.2238253,27.9459398 23.1318977,32.9648127 C26.0399702,37.9836855 24.3131254,44.4005045 19.2765805,47.2983731 L19.2765805,47.2983731 Z M25.4110449,31.6524445 C21.7773685,25.3796222 13.7252733,23.2299212 7.43036359,26.8513603 C1.13493959,30.4738242 -1.02233076,38.4966415 2.61340259,44.7689514 C6.24707894,51.0433111 14.2986599,53.1930121 20.5935696,49.5705481 C26.8889936,45.9480842 29.046264,37.9262918 25.4110449,31.6524445 L25.4110449,31.6524445 Z M14.9424983,33.2364078 C14.4292788,32.7244766 13.5951686,32.7244766 13.0814348,33.2364078 C13.0798921,33.2379451 13.0788636,33.2394824 13.0783494,33.2394824 L9.35776508,36.9459871 C8.84351709,37.4579183 8.84351709,38.2891019 9.35776508,38.8020579 L9.35776508,38.8005206 C9.87252733,39.3124518 10.7050948,39.3124518 11.2198571,38.8005206 L12.6957488,37.3308323 L12.6957488,42.8011679 C12.6957488,43.5267881 13.285077,44.113536 14.0122237,44.113536 C14.7388561,44.113536 15.3286986,43.5267881 15.3286986,42.8011679 L15.3286986,37.3308323 L16.8035619,38.8005206 C17.3178099,39.3124518 18.1524344,39.3124518 18.6646254,38.8005206 L18.6646254,38.8020579 C19.1788734,38.2891019 19.1788734,37.4579183 18.6646254,36.9459871 L14.9424983,33.2364078 L14.9424983,33.2364078 Z" id="Fill-41" fill="#FF8020"></path>
                        <path d="M18.4931856,12.8182647 C18.8500738,13.1739006 19.429117,13.1739006 19.7860051,12.8182647 C20.1428932,12.4626288 20.1428932,11.8861298 19.7860051,11.5299814 L14.1729882,5.93665933 C13.9945442,5.7588414 13.7605613,5.67018865 13.5265785,5.67018865 C13.2925956,5.67018865 13.059127,5.7588414 12.880683,5.93665933 L7.26766608,11.5299814 C6.91077797,11.8861298 6.91077797,12.4626288 7.26766608,12.8182647 C7.62506844,13.1739006 8.20359744,13.1739006 8.5609998,12.8182647 L13.5265785,7.86908422 L18.4931856,12.8182647 L18.4931856,12.8182647 Z M13.5265785,2.19889557 L8.5609998,7.14807605 C8.20359744,7.50371192 7.62506844,7.50371192 7.26766608,7.14807605 C6.91077797,6.79244018 6.91077797,6.21542866 7.26766608,5.86030523 L12.880683,0.265958239 C13.059127,0.0891651898 13.2925956,0 13.5265785,0 C13.7605613,0 13.9945442,0.0891651898 14.1729882,0.265958239 L19.7860051,5.86030523 C20.1428932,6.21542866 20.1428932,6.79244018 19.7860051,7.14807605 C19.429117,7.50371192 18.8500738,7.50371192 18.4931856,7.14807605 L13.5265785,2.19889557 L13.5265785,2.19889557 Z" id="Fill-46" fill="#FF8020"></path>
                    </g>
                    <g id="do5" transform="translate(207.000000, 82.000000)">
                        <path d="M0.953826723,14.7245851 C0.953826723,7.45505994 6.8676787,1.56195831 14.1628008,1.56195831 C21.4574087,1.56195831 27.3712606,7.45505994 27.3712606,14.7245851 C27.3712606,21.9935979 21.4574087,27.8866995 14.1628008,27.8866995 C6.8676787,27.8866995 0.953826723,21.9935979 0.953826723,14.7245851" id="Fill-33" fill="#96C75F"></path>
                        <path d="M1,14.1626268 C1,6.89310162 6.91385198,1 14.2089741,1 C21.5035819,1 27.4174339,6.89310162 27.4174339,14.1626268 C27.4174339,21.4316396 21.5035819,27.3247412 14.2089741,27.3247412 C6.91385198,27.3247412 1,21.4316396 1,14.1626268" id="Fill-34" fill="#C8EBA2"></path>
                        <path d="M13.9576159,1.47689267 C6.81573966,1.47689267 1.00576577,7.26648069 1.00576577,14.3832977 C1.00576577,21.5001147 6.81573966,27.2891902 13.9576159,27.2891902 C21.0989778,27.2891902 26.9089517,21.5001147 26.9089517,14.3832977 C26.9089517,7.26648069 21.0989778,1.47689267 13.9576159,1.47689267 L13.9576159,1.47689267 Z M13.9576159,27.8016338 C6.53238901,27.8016338 0.491517772,21.7819587 0.491517772,14.3832977 C0.491517772,6.98412425 6.53238901,0.964449054 13.9576159,0.964449054 C21.3823285,0.964449054 27.4231997,6.98412425 27.4231997,14.3832977 C27.4231997,21.7819587 21.3823285,27.8016338 13.9576159,27.8016338 L13.9576159,27.8016338 Z" id="Fill-35" fill="#96C75F"></path>
                        <path d="M8.69274485,5.12549124 C13.7292897,2.22813502 20.1697317,3.94738336 23.0767756,8.96625617 C25.9843338,13.9846165 24.2590318,20.401948 19.2230011,23.3003291 C14.1874847,26.1976853 7.74550004,24.4779245 4.83742761,19.4590517 C1.92986942,14.4401789 3.65619995,8.02335991 8.69274485,5.12549124 L8.69274485,5.12549124 Z M2.55879473,20.7714198 C6.19247108,27.0442422 14.244052,29.1939432 20.5389617,25.5725041 C26.8349,21.9500402 28.9921703,13.9272229 25.356437,7.65491295 C21.7222464,1.38055327 13.6711797,-0.769147711 7.37626997,2.85331624 C1.08033173,6.47578018 -1.07693862,14.4975726 2.55879473,20.7714198 L2.55879473,20.7714198 Z M13.0273412,19.1874566 C13.5405607,19.6993878 14.374671,19.6993878 14.8884047,19.1874566 C14.8899475,19.1859193 14.890976,19.1843819 14.890976,19.1843819 L18.6115602,15.4783897 C19.1258082,14.9664585 19.1258082,14.1347625 18.6115602,13.6218065 L18.6115602,13.6233438 C18.096798,13.1114126 17.2642305,13.1114126 16.7494682,13.6233438 L15.2740907,15.0935445 L15.2740907,9.62269645 C15.2740907,8.89707628 14.6847625,8.31032834 13.9576159,8.31032834 C13.2304692,8.31032834 12.641141,8.89707628 12.641141,9.62269645 L12.641141,15.0935445 L11.1662777,13.6233438 C10.6520297,13.1114126 9.81740522,13.1114126 9.30521422,13.6233438 L9.30521422,13.6218065 C8.79096622,14.1347625 8.79096622,14.9664585 9.30521422,15.4783897 L13.0273412,19.1874566 L13.0273412,19.1874566 Z" id="Fill-42" fill="#72D704"></path>
                        <path d="M8.56035699,39.2667269 C8.20398313,38.911091 7.62493988,38.911091 7.26805177,39.2667269 C6.91064941,39.6223628 6.91064941,40.1988618 7.26805177,40.5550102 L12.8810687,46.1483323 C13.0589985,46.3261502 13.2929813,46.4142905 13.5274784,46.4142905 C13.7614612,46.4142905 13.9949298,46.3261502 14.1728596,46.1483323 L19.7858765,40.5550102 C20.1432789,40.1988618 20.1432789,39.6223628 19.7858765,39.2667269 C19.4289884,38.911091 18.8504594,38.911091 18.4930571,39.2667269 L13.5274784,44.2153949 L8.56035699,39.2667269 L8.56035699,39.2667269 Z M13.5274784,49.886096 L18.4930571,44.9369156 C18.8504594,44.5812797 19.4289884,44.5812797 19.7858765,44.9369156 C20.1432789,45.2925514 20.1432789,45.8695629 19.7858765,46.2246864 L14.1728596,51.8185209 C13.9949298,51.9958264 13.7614612,52.0849916 13.5274784,52.0849916 C13.2929813,52.0849916 13.0589985,51.9958264 12.8810687,51.8185209 L7.26805177,46.2246864 C6.91064941,45.8695629 6.91064941,45.2925514 7.26805177,44.9369156 C7.62493988,44.5812797 8.20398313,44.5812797 8.56035699,44.9369156 L13.5274784,49.886096 L13.5274784,49.886096 Z" id="Fill-47" fill="#72D704"></path>
                    </g>
                    <g id="dot4" transform="translate(85.000000, 124.000000)">
                        <path d="M0.942832372,14.1910104 C0.942832372,6.92148518 6.85668435,1.02838356 14.1512922,1.02838356 C21.4464143,1.02838356 27.3602663,6.92148518 27.3602663,14.1910104 C27.3602663,21.4600231 21.4464143,27.3531247 14.1512922,27.3531247 C6.85668435,27.3531247 0.942832372,21.4600231 0.942832372,14.1910104" id="Fill-36" fill="#96C75F"></path>
                        <path d="M1,14.1626268 C1,6.89310162 6.91385198,1 14.2089741,1 C21.5035819,1 27.4174339,6.89310162 27.4174339,14.1626268 C27.4174339,21.4316396 21.5035819,27.3247412 14.2089741,27.3247412 C6.91385198,27.3247412 1,21.4316396 1,14.1626268" id="Fill-37" fill="#C8EBA2"></path>
                        <path d="M13.9461073,0.943317917 C6.80423106,0.943317917 0.994257172,6.73290593 0.994257172,13.8497229 C0.994257172,20.9660275 6.80423106,26.7556155 13.9461073,26.7556155 C21.0879835,26.7556155 26.8974431,20.9660275 26.8974431,13.8497229 C26.8974431,6.73290593 21.0879835,0.943317917 13.9461073,0.943317917 L13.9461073,0.943317917 Z M13.9461073,27.2680591 C6.52088041,27.2680591 0.480009174,21.2483839 0.480009174,13.8497229 C0.480009174,6.4505495 6.52088041,0.430874297 13.9461073,0.430874297 C21.3708199,0.430874297 27.4116911,6.4505495 27.4116911,13.8497229 C27.4116911,21.2483839 21.3708199,27.2680591 13.9461073,27.2680591 L13.9461073,27.2680591 Z" id="Fill-38" fill="#96C75F"></path>
                        <path d="M8.8874497,5.10384766 C13.9239946,2.20649144 20.3639223,3.92573978 23.2714805,8.94461259 C26.1790386,13.962973 24.4532224,20.3803044 19.4171917,23.2786855 C14.3816753,26.1755293 7.94020489,24.456281 5.03213246,19.4374081 C2.12457427,14.4185353 3.8509048,8.00171633 8.8874497,5.10384766 L8.8874497,5.10384766 Z M2.75298533,20.7497763 C6.38717593,27.0225986 14.4387568,29.1722996 20.7336666,25.5508605 C27.0290906,21.9283966 29.1868752,13.9055793 25.5506276,7.63326937 C21.9169512,1.35890969 13.8658846,-0.790791291 7.57046058,2.83167265 C1.27503658,6.4541366 -0.882233774,14.475929 2.75298533,20.7497763 L2.75298533,20.7497763 Z M13.2220461,19.165813 C13.7352656,19.6777442 14.5693758,19.6777442 15.0831096,19.165813 C15.0846523,19.1642757 15.0856808,19.1627384 15.0861951,19.1627384 L18.8062651,15.4567461 C19.3205131,14.9443025 19.3205131,14.1131189 18.8062651,13.6001629 L18.8062651,13.6017002 C18.2915028,13.089769 17.4589353,13.089769 16.9441731,13.6017002 L15.4687956,15.0719009 L15.4687956,9.60105287 C15.4687956,8.8754327 14.8789531,8.28868476 14.1518065,8.28868476 C13.425174,8.28868476 12.8358458,8.8754327 12.8358458,9.60105287 L12.8358458,15.0719009 L11.3604683,13.6017002 C10.8462203,13.089769 10.0115958,13.089769 9.49940482,13.6017002 L9.49940482,13.6001629 C8.98515682,14.1131189 8.98515682,14.9443025 9.49940482,15.4567461 L13.2220461,19.165813 L13.2220461,19.165813 Z" id="Fill-43" fill="#72D704"></path>
                        <path d="M8.56048555,39.2667269 C8.20411169,38.911091 7.62506844,38.911091 7.26766608,39.2667269 C6.91077797,39.6218503 6.91077797,40.1983494 7.26766608,40.5550102 L12.880683,46.1483323 C13.059127,46.3256378 13.2931099,46.4142905 13.5270927,46.4142905 C13.7610756,46.4142905 13.9945442,46.3256378 14.1729882,46.1483323 L19.7860051,40.5550102 C20.1428932,40.1983494 20.1428932,39.6218503 19.7860051,39.2667269 C19.429117,38.911091 18.850588,38.911091 18.4926714,39.2667269 L13.5270927,44.2153949 L8.56048555,39.2667269 L8.56048555,39.2667269 Z M13.5270927,49.886096 L18.4926714,44.9364031 C18.850588,44.5812797 19.429117,44.5812797 19.7860051,44.9364031 C20.1428932,45.2925514 20.1428932,45.8695629 19.7860051,46.2246864 L14.1729882,51.8185209 C13.9945442,51.9958264 13.7610756,52.0849916 13.5270927,52.0849916 C13.2931099,52.0849916 13.059127,51.9958264 12.880683,51.8185209 L7.26766608,46.2246864 C6.91077797,45.8695629 6.91077797,45.2925514 7.26766608,44.9364031 C7.62506844,44.5812797 8.20411169,44.5812797 8.56048555,44.9364031 L13.5270927,49.886096 L13.5270927,49.886096 Z" id="Fill-48" fill="#72D704"></path>
                    </g>
                </g>
            </g>
        </g>
    </g>
</svg>